<?xml version="1.0" standalone="no"?>
<!DOCTYPE svg PUBLIC "-//W3C//DTD SVG 20010904//EN"
 "http://www.w3.org/TR/2001/REC-SVG-20010904/DTD/svg10.dtd">
<svg version="1.0" xmlns="http://www.w3.org/2000/svg"
 width="64.000000pt" height="64.000000pt" viewBox="0 0 64.000000 64.000000"
 preserveAspectRatio="xMidYMid meet">

<g transform="translate(0.000000,64.000000) scale(0.100000,-0.100000)"
fill="#000000" stroke="none">
<path d="M330 603 c0 -5 14 -22 30 -38 17 -16 30 -25 30 -19 0 5 -13 22 -30
37 -16 16 -30 25 -30 20z"/>
<path d="M477 516 c-3 -8 2 -20 11 -27 14 -11 15 -11 5 0 -6 7 -9 20 -6 27 3
8 3 14 0 14 -3 0 -7 -6 -10 -14z"/>
<path d="M167 504 c-8 -13 20 -41 30 -30 3 3 1 6 -5 6 -6 0 -12 8 -14 18 -2
11 -6 13 -11 6z"/>
<path d="M403 458 c-35 -57 -40 -76 -26 -103 8 -15 17 -25 20 -22 2 3 -1 15
-7 27 -11 20 -3 50 27 103 7 12 -5 8 -14 -5z"/>
<path d="M467 306 c-4 -10 -5 -21 -2 -24 9 -9 17 6 13 25 -3 17 -4 17 -11 -1z"/>
<path d="M510 252 c12 -24 2 -111 -21 -185 -5 -16 -4 -27 1 -27 5 0 12 10 14
22 5 22 23 111 31 151 2 9 -6 27 -16 40 l-20 22 11 -23z"/>
</g>
</svg>
